<svg width="411" height="525" viewBox="0 0 411 525" fill="none" xmlns="http://www.w3.org/2000/svg">
<g clip-path="url(#clip0_437_134)">
<mask id="mask0_437_134" style="mask-type:luminance" maskUnits="userSpaceOnUse" x="0" y="0" width="411" height="525">
<path d="M411 0H0V525H411V0Z" fill="white"/>
</mask>
<g mask="url(#mask0_437_134)">
<path d="M150.072 75.1619C150.072 33.6511 116.477 0 75.0358 0C33.5947 0 0 33.6511 0 75.1619C0 116.673 33.5947 150.324 75.0358 150.324C116.477 150.324 150.072 116.673 150.072 75.1619Z" fill="black"/>
<path d="M303.914 0H184.007C175.678 0 168.925 6.76404 168.925 15.1079V135.216C168.925 143.56 175.678 150.324 184.007 150.324H303.914C312.244 150.324 318.996 143.56 318.996 135.216V15.1079C318.996 6.76404 312.244 0 303.914 0Z" fill="black"/>
<path d="M410.999 0H340.111V150.324H410.999V0Z" fill="black"/>
<path d="M150.072 180.54H0V330.863H150.072V180.54Z" fill="black"/>
<path d="M112.365 290.827H37.7064C16.8817 290.827 0 307.737 0 328.597V355.036C0 375.895 16.8817 392.806 37.7064 392.806H112.365C133.19 392.806 150.072 375.895 150.072 355.036V328.597C150.072 307.737 133.19 290.827 112.365 290.827Z" fill="black"/>
<path d="M0 460.791C0 439.932 16.8818 423.021 37.7064 423.021H64.1009C84.9254 423.021 101.807 439.932 101.807 460.791V525H37.7064C16.8818 525 0 508.09 0 487.23V460.791Z" fill="black"/>
<path d="M101.808 423.777H217.943C227.939 423.777 236.042 431.894 236.042 441.906V506.87C236.042 516.883 227.939 525 217.943 525H101.808V423.777Z" fill="black"/>
<path d="M411 423H287.041C263.27 423 244 445.61 244 473.5C244 501.39 263.27 524 287.041 524L411 525V473.5V423Z" fill="black"/>
<path d="M411 229H190.277C179.63 229 171 237.688 171 248.406V307.594C171 318.312 179.63 327 190.277 327H411V229Z" fill="black"/>
</g>
</g>
<defs>
<clipPath id="clip0_437_134">
<rect width="411" height="525" fill="white"/>
</clipPath>
</defs>
</svg>
