<svg width="89" height="111" viewBox="0 0 89 111" fill="none" xmlns="http://www.w3.org/2000/svg">
<g clip-path="url(#clip0_433_114)">
<mask id="mask0_433_114" style="mask-type:luminance" maskUnits="userSpaceOnUse" x="0" y="0" width="89" height="111">
<path d="M89 0H0V111H89V0Z" fill="white"/>
</mask>
<g mask="url(#mask0_433_114)">
<path d="M32.4972 15.8914C32.4972 7.11481 25.2225 0 16.2486 0C7.27476 0 0 7.11481 0 15.8914C0 24.6679 7.27476 31.7827 16.2486 31.7827C25.2225 31.7827 32.4972 24.6679 32.4972 15.8914Z" fill="#B2E77C"/>
<path d="M65.8113 0H39.8461C38.0423 0 36.5801 1.43011 36.5801 3.19424V28.5885C36.5801 30.3526 38.0423 31.7827 39.8461 31.7827H65.8113C67.6151 31.7827 69.0773 30.3526 69.0773 28.5885V3.19424C69.0773 1.43011 67.6151 0 65.8113 0Z" fill="#B2E77C"/>
<path d="M88.9999 0H73.6494V31.7827H88.9999V0Z" fill="#B2E77C"/>
<path d="M32.4972 38.1709H0V69.9536H32.4972V38.1709Z" fill="#B2E77C"/>
<path d="M24.3321 61.4893H8.16514C3.65566 61.4893 0 65.0645 0 69.4749V75.0648C0 79.4751 3.65566 83.0504 8.16514 83.0504H24.3321C28.8416 83.0504 32.4972 79.4751 32.4972 75.0648V69.4749C32.4972 65.0645 28.8416 61.4893 24.3321 61.4893Z" fill="#B2E77C"/>
<path d="M0 97.4241C0 93.0138 3.65566 89.4385 8.16514 89.4385H13.8807C18.3902 89.4385 22.0459 93.0138 22.0459 97.4241V111H8.16514C3.65566 111 0 107.424 0 103.014V97.4241Z" fill="#B2E77C"/>
<path d="M22.0459 89.5986H47.1945C49.3591 89.5986 51.1138 91.3147 51.1138 93.4317V107.167C51.1138 109.284 49.3591 111 47.1945 111H22.0459V89.5986Z" fill="#B2E77C"/>
<path d="M80.2371 95H63.7629C58.9233 95 55 98.5817 55 103C55 107.418 58.9233 111 63.7629 111H80.2371C85.0767 111 89 107.418 89 103C89 98.5817 85.0767 95 80.2371 95Z" fill="#B2E77C"/>
<path d="M36 49H72.7871C74.5616 49 76 50.7731 76 52.9604V65.0396C76 67.2269 74.5616 69 72.7871 69H36V49Z" fill="#B2E77C"/>
</g>
</g>
<defs>
<clipPath id="clip0_433_114">
<rect width="89" height="111" fill="white"/>
</clipPath>
</defs>
</svg>
